<?xml version="1.0" standalone="no"?>
<!DOCTYPE svg PUBLIC "-//W3C//DTD SVG 20010904//EN"
 "http://www.w3.org/TR/2001/REC-SVG-20010904/DTD/svg10.dtd">
<svg version="1.0" xmlns="http://www.w3.org/2000/svg"
 width="750.000000pt" height="750.000000pt" viewBox="0 0 750.000000 750.000000"
 preserveAspectRatio="xMidYMid meet">
<metadata>
Created by potrace 1.11, written by Peter Selinger 2001-2013
</metadata>
<g transform="translate(0.000000,750.000000) scale(0.100000,-0.100000)"
fill="#000000" stroke="none">
<path d="M6128 5865 c-2 -2 -52 -6 -113 -9 -60 -4 -135 -9 -165 -11 -139 -13
-168 -16 -210 -21 -65 -7 -191 -24 -220 -29 -14 -2 -43 -6 -65 -10 -133 -19
-370 -66 -510 -102 -55 -14 -107 -26 -115 -28 -87 -18 -424 -129 -592 -196
-106 -42 -362 -165 -456 -218 -207 -120 -397 -276 -503 -416 -58 -76 -88 -130
-127 -230 -51 -129 -70 -231 -87 -470 -3 -38 -7 -81 -10 -95 -2 -14 -7 -43
-10 -65 -17 -121 -82 -290 -152 -390 l-34 -50 36 40 c20 22 69 76 108 120 131
145 400 409 531 520 32 28 64 55 70 60 18 17 230 188 266 215 19 14 61 46 94
71 80 60 317 220 431 291 481 298 1046 551 1580 707 134 39 190 55 200 57 6 1
46 11 90 22 44 11 105 25 135 31 67 14 93 19 123 27 40 10 102 17 97 11 -3 -3
-17 -8 -30 -10 -71 -14 -262 -64 -390 -104 -1033 -319 -1925 -924 -2597 -1761
-91 -113 -261 -347 -296 -406 l-18 -31 21 25 c192 230 397 336 705 365 28 3
151 7 275 10 211 4 311 10 377 21 62 11 159 37 171 46 6 6 12 8 12 4 0 -3 30
10 68 30 185 100 397 345 597 692 313 545 635 811 1260 1039 96 35 381 122
454 138 117 27 224 54 216 55 -38 5 -69 9 -130 14 -38 3 -79 8 -90 10 -11 2
-67 7 -125 11 -58 4 -123 10 -145 12 -46 4 -723 12 -727 8z m599 -131 c-3 -3
-12 -4 -19 -1 -8 3 -5 6 6 6 11 1 17 -2 13 -5z m-60 -10 c-3 -3 -12 -4 -19 -1
-8 3 -5 6 6 6 11 1 17 -2 13 -5z m-67 -11 c-57 -18 -70 -21 -70 -13 0 9 29 17
65 18 13 0 15 -1 5 -5z"/>
<path d="M920 4188 c-124 -32 -206 -174 -174 -301 29 -112 115 -182 236 -191
35 -3 80 -12 99 -20 199 -83 208 -356 15 -451 -53 -26 -55 -26 -312 -28 -297
-3 -311 -6 -404 -93 -89 -83 -111 -148 -145 -426 -6 -51 -15 -112 -21 -153 -3
-16 -7 -48 -9 -70 -3 -22 -7 -51 -10 -64 -2 -14 -7 -47 -10 -75 -3 -28 -10
-78 -15 -111 -5 -33 -12 -82 -15 -110 -3 -27 -10 -74 -16 -104 -24 -141 -3
-236 66 -300 88 -81 -4 -76 1435 -75 701 0 1288 3 1303 7 93 24 163 82 185
154 13 41 9 188 -7 273 -5 30 -13 79 -16 109 -4 30 -8 61 -10 70 -1 9 -6 43
-10 76 -4 32 -8 66 -10 75 -1 8 -6 38 -9 65 -4 28 -9 61 -11 75 -2 14 -6 48
-10 75 -3 28 -10 80 -15 116 -5 37 -13 91 -16 120 -8 69 -36 161 -50 166 -6 2
-18 -13 -27 -34 -8 -21 -25 -54 -36 -73 -24 -41 -137 -280 -156 -330 -37 -98
-98 -246 -106 -256 -5 -6 -35 -14 -67 -17 -240 -27 -480 -131 -667 -291 -81
-69 -101 -90 -169 -171 -32 -38 -61 -72 -63 -75 -4 -5 39 99 93 220 48 108
235 473 286 558 l20 33 -57 -40 c-116 -81 -300 -140 -456 -147 -184 -7 -258
49 -217 163 14 39 5 53 -38 58 -39 4 -94 -17 -204 -80 -134 -75 -202 -97 -330
-101 -199 -7 -344 62 -401 190 -19 43 -21 61 -15 135 8 117 28 193 62 243 35
51 96 96 138 103 17 2 141 6 276 7 l245 3 63 29 c182 84 260 313 166 486 -64
117 -168 182 -308 193 -92 8 -151 64 -149 142 2 57 26 97 73 124 37 21 46 21
713 21 375 0 686 -4 699 -9 87 -33 118 -162 55 -229 -31 -34 -50 -42 -110 -48
-156 -14 -262 -86 -322 -217 -71 -154 -11 -350 135 -442 60 -38 121 -52 225
-54 l100 -2 37 50 c21 28 38 52 38 54 0 2 -58 4 -129 5 -110 1 -138 4 -181 23
-89 38 -154 137 -149 227 2 47 24 115 44 140 53 66 115 98 205 107 79 8 135
31 177 75 120 123 86 319 -69 402 l-43 23 -695 1 c-382 0 -711 -3 -730 -8z"/>
<path d="M3175 3369 c-4 -6 -5 -12 -2 -15 2 -3 7 2 10 11 7 17 1 20 -8 4z"/>
</g>
</svg>
