<?xml version="1.0" encoding="UTF-8" standalone="no"?>
<!DOCTYPE svg PUBLIC "-//W3C//DTD SVG 1.1//EN" "http://www.w3.org/Graphics/SVG/1.1/DTD/svg11.dtd">
<svg width="100%" height="100%" viewBox="0 0 24 24" version="1.1" xmlns="http://www.w3.org/2000/svg" xmlns:xlink="http://www.w3.org/1999/xlink" xml:space="preserve" xmlns:serif="http://www.serif.com/" style="fill-rule:evenodd;clip-rule:evenodd;stroke-linejoin:round;stroke-miterlimit:1.41421;">
    <path d="M4,3L20,3C21.1,3 22,3.9 22,5L22,21C22,22.1 21.1,23 20,23L4,23C2.9,23 2,22.1 2,21L2,5C2,3.9 2.9,3 4,3ZM8.667,5L4,5L4,21L8.667,21L8.667,5ZM9.667,5L9.667,21L14.333,21L14.333,5L9.667,5ZM15.333,5L15.333,21L20,21L20,5L15.333,5Z" style="fill-rule:nonzero;"/>
</svg>
