<svg xmlns="http://www.w3.org/2000/svg" width="120" height="120" viewBox="0 0 120 120">
    <rect width="100%" height="100%" fill="darkblue"/>
    <path fill="white" d="M39.954 71.846c6.948-2.788 13.629-4.185 20.048-4.185 6.413 0 13.094 1.396 20.043 4.185 6.947 2.793 10.424 6.444 10.424 10.961v7.662H29.53v-7.662c0-4.517 3.475-8.168 10.424-10.961zm30.734-16.303C67.724 58.514 64.156 60 60.002 60c-4.16 0-7.721-1.486-10.692-4.457-2.973-2.967-4.454-6.532-4.454-10.688 0-4.16 1.48-7.75 4.454-10.782 2.971-3.03 6.532-4.542 10.692-4.542 4.154 0 7.721 1.512 10.686 4.542 2.973 3.032 4.457 6.622 4.457 10.782.001 4.156-1.484 7.721-4.457 10.688z"/>
</svg>
