<svg xmlns="http://www.w3.org/2000/svg" width="360" height="220" viewBox="0 0 360 220"><path fill="#fff" d="M128.502 125.433l-.002.003zM352.783 11.189C257.167-1.5 170.113 29.721 150.506 61.395c-13.75 22.212-1.69 37.784-18.288 59.592C185.775 58.053 263.962 16.316 352.783 11.189z"/><path fill="#fff" d="M150.545 131.373c24.622-39.539 62.952-11.312 86.941-32.303 33.904-29.666 20.355-67.387 115.297-87.881-85.91 5.155-159.814 52.058-202.238 120.184zm-.16 65.127c-1.197-8.495-4.914-35.422-6-44a19.897 19.897 0 0 0-2.151-6.764c-.03.018-.062.033-.093.051a265.166 265.166 0 0 0-3.012 5.771c-5.066 9.816-9.354 20.221-12.285 28.269-19.576 1.516-35.55 10.864-47.488 27.673l1.365-3.042a314.243 314.243 0 0 1 18.563-37.304c-3.497 3.174-10.569 6.483-16.012 7.719-15.786 3.582-21.938-.545-18.772-7.044 1.357-2.787-2.795-4.265-11.625 1.421-16.375 10.544-37.123 3.626-36.261-9.661.352-2.638.646-4.872.847-6.462.811-6.41 5.764-11.627 11.04-11.627h19c9.374 0 17-7.626 17-17s-7.626-17-17-17c-3.86 0-7-3.141-7-7s3.14-7 7-7h61.942c3.859 0 6.972 3.141 6.972 7s-3.155 7-7.015 7c-9.374 0-17.007 7.626-17.007 17s7.618 17 16.992 17h6.56a317.603 317.603 0 0 1 3.67-5h-10.229c-6.627 0-12-5.373-12-12s5.373-12 12-12 12-5.373 12-12-5.373-12-12-12H47.5c-6.627 0-12 5.373-12 12s5.373 12 12 12 12 5.373 12 12-5.373 12-12 12h-19c-7.999 0-14.895 7.263-16 16-1.085 8.578-4.802 35.505-6 44-1.533 10.874 4.413 16 16 16h111.885c12.68 0 17.519-5.221 16-16z"/></svg>