<svg xmlns="http://www.w3.org/2000/svg" width="100" height="100" viewBox="0 0 100 100"><path d="M84.655 26.301v.009l.005.045.074 1.355.141 2.614c.191 3.36.396 6.212.563 7.965.68 7-2.723 14.1-2.723 14.1-5.22.524-2.678-1.02-4.504-7.363-.465-1.583-.717-4.994-.832-9.29a519.09 519.09 0 0 1-.05-3.152c-1.573 3.049-3.741 8.403-9.872 17.26-7.25 10.478-14.607 16.877-27.444 22.635-5.508 2.467-22.119 5.912-22.984 6.248-3.489 1.332-3.276-5.05-.147-6.608 5.023-2.508 11.524-2.389 18.969-5.895 10.748-5.06 18.865-10.274 25.258-19.673 5.69-8.373 8.92-14.91 9.725-16.345-6.82 1.887-12.57 3.288-14.381 3.467-4.944.48-2.1-6.454 2.173-6.743 2.139-.14 8.987-2.405 16.106-4.981l1.335-.483.666-.247.086-.029.02-.011h.013c.803-.319 2.59.343 2.133.283l.037.022.164.082.316.16 2.514 1.28.627.308.31.163.154.074.078.04.017.012c2.912 5.375.803 1.492 1.453 2.698z"/></svg>