<?xml version="1.0" standalone="no"?>
<!DOCTYPE svg PUBLIC "-//W3C//DTD SVG 20010904//EN"
 "http://www.w3.org/TR/2001/REC-SVG-20010904/DTD/svg10.dtd">
<svg version="1.0" xmlns="http://www.w3.org/2000/svg"
 width="250.000000pt" height="202.000000pt" viewBox="0 0 250.000000 202.000000"
 preserveAspectRatio="xMidYMid meet">

<g transform="translate(0.000000,202.000000) scale(0.100000,-0.100000)"
fill="#000000" stroke="none">
<path d="M1751 1889 c-65 -13 -260 -15 -506 -5 -191 8 -230 7 -295 -8 -210
-47 -311 -178 -312 -406 0 -149 34 -242 115 -317 91 -84 202 -121 397 -132
l115 -6 3 -376 2 -375 -69 -34 c-90 -43 -126 -72 -118 -93 6 -15 41 -17 376
-17 203 0 376 3 385 6 39 15 0 57 -101 108 l-53 26 0 754 0 753 40 12 c58 17
102 58 98 90 -3 29 -15 33 -77 20z m-481 -429 l0 -310 -50 0 c-119 0 -270 49
-333 109 -54 49 -72 97 -72 191 0 75 4 92 30 145 36 72 92 118 173 141 61 18
141 31 210 33 l42 1 0 -310z m239 304 l31 -6 0 -749 c0 -730 0 -749 -19 -759
-11 -5 -32 -10 -46 -10 -14 0 -35 5 -46 10 -19 10 -19 29 -19 765 l0 755 34 0
c18 0 48 -3 65 -6z"/>
</g>
</svg>
