<?xml version="1.0" standalone="no"?>
<!DOCTYPE svg PUBLIC "-//W3C//DTD SVG 20010904//EN"
 "http://www.w3.org/TR/2001/REC-SVG-20010904/DTD/svg10.dtd">
<svg version="1.0" xmlns="http://www.w3.org/2000/svg"
 width="128.000000pt" height="128.000000pt" viewBox="0 0 128.000000 128.000000"
 preserveAspectRatio="xMidYMid meet">

<g transform="translate(0.000000,128.000000) scale(0.100000,-0.100000)"
fill="#000000" stroke="none">
<path d="M415 1110 c-230 -25 -359 -111 -400 -266 -12 -46 -15 -124 -15 -371
l0 -313 275 0 275 0 0 275 0 275 -140 0 -140 0 0 41 c0 142 78 228 225 245
l55 7 0 58 0 59 -32 -1 c-18 -1 -64 -5 -103 -9z"/>
<path d="M1144 1110 c-183 -20 -319 -91 -373 -198 -34 -66 -41 -146 -41 -454
l0 -298 275 0 275 0 0 275 0 275 -134 0 -134 0 -7 28 c-7 32 8 110 29 151 32
60 95 96 190 107 l56 7 0 58 0 59 -32 -1 c-18 -1 -65 -5 -104 -9z"/>
</g>
</svg>


