<?xml version="1.0" standalone="no"?>
<!DOCTYPE svg PUBLIC "-//W3C//DTD SVG 20010904//EN"
 "http://www.w3.org/TR/2001/REC-SVG-20010904/DTD/svg10.dtd">
<svg version="1.0" xmlns="http://www.w3.org/2000/svg"
 width="128.000000pt" height="128.000000pt" viewBox="0 0 128.000000 128.000000"
 preserveAspectRatio="xMidYMid meet">

<g transform="translate(0.000000,128.000000) scale(0.100000,-0.100000)"
fill="lightgray" stroke="none">
<path d="M0 1210 l0 -70 640 0 640 0 0 70 0 70 -640 0 -640 0 0 -70z"/>
<path d="M570 925 l0 -75 355 0 355 0 0 75 0 75 -355 0 -355 0 0 -75z"/>
<path d="M135 780 l-140 -140 143 -143 142 -142 0 283 c0 155 -1 282 -3 282
-1 0 -65 -63 -142 -140z"/>
<path d="M570 640 l0 -70 355 0 355 0 0 70 0 70 -355 0 -355 0 0 -70z"/>
<path d="M570 355 l0 -75 355 0 355 0 0 75 0 75 -355 0 -355 0 0 -75z"/>
<path d="M0 70 l0 -70 640 0 640 0 0 70 0 70 -640 0 -640 0 0 -70z"/>
</g>
</svg>
