<svg version="1.0" xmlns="http://www.w3.org/2000/svg"
     width="1rem"
     height="1rem" fill="currentColor" stroke="currentColor" color="currentColor" aria-hidden="true" viewBox="0 0 209.000000 208.000000"
>

<g transform="translate(0.000000,208.000000) scale(0.100000,-0.100000)">
<path d="M204 1772 c-75 -54 -147 -180 -160 -278 -5 -45 -3 -55 15 -73 19 -19
32 -21 141 -21 107 0 122 2 140 20 24 24 25 49 6 76 -12 15 -30 20 -95 24
l-81 5 22 45 c13 25 46 69 75 98 57 57 64 81 33 112 -27 27 -50 25 -96 -8z"/>
<path d="M599 1766 c-75 -57 -142 -175 -155 -272 -5 -45 -3 -55 15 -73 19 -19
32 -21 141 -21 107 0 122 2 140 20 24 24 25 49 6 76 -12 15 -30 20 -95 24
l-81 5 22 45 c13 25 46 69 75 98 57 57 64 81 33 112 -28 28 -50 25 -101 -14z"/>
<path d="M940 1500 c-11 -11 -20 -29 -20 -40 0 -11 9 -29 20 -40 19 -19 33
-20 540 -20 507 0 521 1 540 20 11 11 20 29 20 40 0 11 -9 29 -20 40 -19 19
-33 20 -540 20 -507 0 -521 -1 -540 -20z"/>
<path d="M60 1220 c-11 -11 -20 -29 -20 -40 0 -11 9 -29 20 -40 20 -20 33 -20
980 -20 947 0 960 0 980 20 11 11 20 29 20 40 0 11 -9 29 -20 40 -20 20 -33
20 -980 20 -947 0 -960 0 -980 -20z"/>
<path d="M60 940 c-11 -11 -20 -29 -20 -40 0 -11 9 -29 20 -40 20 -20 33 -20
980 -20 947 0 960 0 980 20 11 11 20 29 20 40 0 11 -9 29 -20 40 -20 20 -33
20 -980 20 -947 0 -960 0 -980 -20z"/>
<path d="M60 660 c-11 -11 -20 -29 -20 -40 0 -11 9 -29 20 -40 19 -19 33 -20
540 -20 507 0 521 1 540 20 11 11 20 29 20 40 0 11 -9 29 -20 40 -19 19 -33
20 -540 20 -507 0 -521 -1 -540 -20z"/>
<path d="M1340 660 c-24 -24 -25 -49 -6 -76 12 -15 30 -20 95 -24 l81 -5 -21
-43 c-12 -23 -46 -68 -75 -98 -58 -59 -65 -83 -34 -114 27 -27 50 -25 96 8 67
49 124 139 150 237 19 68 17 92 -6 115 -18 18 -33 20 -140 20 -107 0 -122 -2
-140 -20z"/>
<path d="M1740 660 c-24 -24 -25 -49 -6 -76 12 -15 30 -20 95 -24 l81 -5 -22
-45 c-13 -25 -46 -69 -75 -98 -57 -57 -64 -81 -33 -112 27 -27 50 -25 96 8 75
54 147 180 160 278 5 45 3 55 -15 73 -19 19 -32 21 -141 21 -107 0 -122 -2
-140 -20z"/>
</g>
</svg>
